<svg xmlns="http://www.w3.org/2000/svg" width="33.339" height="26.614" viewBox="0 0 33.339 26.614">
  <g id="noun_Hamster_3378728" transform="translate(-131.012 -185.012)">
    <g id="Group_6" data-name="Group 6" transform="translate(99 113)">
      <path id="Path_17" data-name="Path 17" d="M63.656,75.931l-3.648-2.321a6.423,6.423,0,0,0-4.272-.954,4.138,4.138,0,0,0-5.953,5.27H46.65a9.832,9.832,0,0,0-8.2,4.387l-.074.112a10.194,10.194,0,0,0-.647,10.19l.121.242L36.4,94.8l-3.19.762a1.554,1.554,0,0,0,.361,3.065h2.142a6.426,6.426,0,0,0,4.238-1.582l.015.029a2.793,2.793,0,0,0,2.512,1.553H52.34a.591.591,0,0,0,.591-.591v-.844a2.1,2.1,0,0,0-.5-1.366l.748-.748h1.694l1.048,3.144a.591.591,0,0,0,.561.4h3.549a.591.591,0,0,0,.591-.591V97.007a1.624,1.624,0,0,0-1.112-1.543l-.741-.247-.5-2.48.621-2.174a9.853,9.853,0,0,0,.3-3.95l-.095-.761a2.063,2.063,0,0,1,1.327-2.195l1.606-.6a6.263,6.263,0,0,0,2.244-1.445,3.662,3.662,0,0,0-.623-5.679ZM35.708,97.444H33.566a.371.371,0,0,1-.086-.732l3.4-.812a.591.591,0,0,0,.336-.22l1.23-1.64.953,1.905A5.256,5.256,0,0,1,35.708,97.444ZM63.443,80.773a5.088,5.088,0,0,1-1.823,1.174l-1.606.6A3.242,3.242,0,0,0,57.928,86l.1.761a8.674,8.674,0,0,1-.268,3.479l-.661,2.312a.591.591,0,0,0-.011.278l.591,2.957a.591.591,0,0,0,.393.445l1.067.356a.444.444,0,0,1,.3.421v.437H56.906L55.858,94.3a.591.591,0,0,0-.561-.4H52.931a.591.591,0,0,0-.418.173l-1.1,1.1a2.1,2.1,0,0,0-.6-.087h-1.3l1.429-1.608a4.466,4.466,0,0,0-6.5-6.125l-.809.809a.591.591,0,1,0,.836.836l.809-.809a3.283,3.283,0,0,1,4.775,4.5l-2.3,2.592a.591.591,0,0,0,.442.985h2.618a.932.932,0,0,1,.931.931v.252H42.473a1.617,1.617,0,0,1-1.455-.9l-2.23-4.459a9.008,9.008,0,0,1,.574-9l.074-.112a8.651,8.651,0,0,1,7.213-3.86h3.916a.606.606,0,0,0,.061,0,4.125,4.125,0,0,0,2.9,1.186.591.591,0,1,0,0-1.183,2.957,2.957,0,1,1,2.562-4.435.591.591,0,1,0,1.024-.592c-.056-.1-.116-.191-.179-.282a5.242,5.242,0,0,1,2.443.808l3.648,2.321a2.479,2.479,0,0,1,.422,3.844Z"/>
      <circle id="Ellipse_5" data-name="Ellipse 5" cx="0.887" cy="0.887" r="0.887" transform="translate(57.959 76.447)"/>
      <path id="Path_18" data-name="Path 18" d="M293.349,96a2.366,2.366,0,1,0,.789,4.6.591.591,0,0,0-.394-1.115,1.183,1.183,0,1,1,.721-1.51.591.591,0,1,0,1.115-.394A2.37,2.37,0,0,0,293.349,96Z" transform="translate(-239.826 -22.214)"/>
    </g>
  </g>
</svg>
