<svg xmlns="http://www.w3.org/2000/svg" width="24.845" height="32.755" viewBox="0 0 24.845 32.755">
  <g id="noun_Dog_2755593" transform="translate(234.226 36.347)">
    <g id="Group_4" data-name="Group 4" transform="translate(-247 -43)">
      <g id="Group_3" data-name="Group 3" transform="translate(12.774 6.653)">
        <path id="Path_7" data-name="Path 7" d="M41.743,42.188a.646.646,0,0,0-1.257.3c.562,2.346.382,4.079-.534,5.151a4.459,4.459,0,0,1-3.416,1.247h-9.71a1.974,1.974,0,0,1,1.861-1.324h3.27a.646.646,0,0,0,0-1.292,3.932,3.932,0,0,1,0-7.864.646.646,0,0,0,0-1.292,5.218,5.218,0,0,0-3.413,9.171,3.259,3.259,0,0,0-3.119,3.248.646.646,0,0,0,.646.646l10.41,0c.021,0,.138.011.324.011a5.5,5.5,0,0,0,4.12-1.7C42.133,47.085,42.408,44.965,41.743,42.188Z" transform="translate(-17.251 -17.432)"/>
        <path id="Path_8" data-name="Path 8" d="M18.706,14.033a5.01,5.01,0,0,0-1.087-.533,6.233,6.233,0,0,1-3.327-2.561,1.411,1.411,0,0,1-.156-1.2.55.55,0,0,1,.432-.338,2.374,2.374,0,0,1,.89.1,4.846,4.846,0,0,0,.92.15,5.6,5.6,0,0,0,2.186-.386c.238-.095.483-.2.736-.3,1.826-.768,3.894-1.636,5.4-.405,1.376,1.122,1.676,4.209.9,5.7a1.38,1.38,0,0,1-1.444.58,1.4,1.4,0,0,1-1.222-1.162,4.383,4.383,0,0,1,1.079-3.239.646.646,0,1,0-.914-.914,5.634,5.634,0,0,0-1.435,4.391,2.681,2.681,0,0,0,2.3,2.2,2.936,2.936,0,0,0,1.659-.22,12.511,12.511,0,0,0,2.4,5.26c3.207,4.672,5.5,8.63,3.53,13.472a.646.646,0,1,0,1.2.488c2.394-5.872-.963-10.762-3.661-14.691-1.2-1.749-2.27-3.508-2.269-5.74.937-2.024.549-5.614-1.3-7.124-2.111-1.721-4.775-.6-6.721.215-.245.1-.485.2-.715.3a4.221,4.221,0,0,1-1.66.295,3.84,3.84,0,0,1-.676-.117,3.335,3.335,0,0,0-1.442-.109,1.834,1.834,0,0,0-1.359,1.1,2.709,2.709,0,0,0,.252,2.395A7.451,7.451,0,0,0,17.138,14.7a4.379,4.379,0,0,1,.8.376c.092.068,2.24,1.7.445,5.758-1.258,2.839-.742,6.211-.288,9.186.085.553.168,1.1.238,1.624.3,2.3-.117,3.369-.524,3.856a1.912,1.912,0,0,1-1.452.645h-.654A2.612,2.612,0,0,0,13.1,38.753a.646.646,0,0,0,.646.646h5.233a.646.646,0,1,0,0-1.292H14.562a1.318,1.318,0,0,1,1.146-.67h.685a3.2,3.2,0,0,0,2.413-1.109c.833-1,1.107-2.631.813-4.854-.071-.537-.155-1.088-.241-1.65-.449-2.937-.913-5.974.191-8.468C21.335,17.369,19.857,14.877,18.706,14.033Z" transform="translate(-12.774 -6.653)"/>
        <circle id="Ellipse_4" data-name="Ellipse 4" cx="0.654" cy="0.654" r="0.654" transform="translate(7.513 2.669)"/>
      </g>
    </g>
  </g>
</svg>
