<svg xmlns="http://www.w3.org/2000/svg" width="24.28" height="33.176" viewBox="0 0 24.28 33.176">
  <g id="noun_Cat_2755594" transform="translate(-12.716 -5.537)">
    <g id="Group_2" data-name="Group 2" transform="translate(12.716 5.537)">
      <g id="Group_1" data-name="Group 1">
        <path id="Path_5" data-name="Path 5" d="M18.368,14.7a.634.634,0,0,0-.548-.09l-.106.032c-.559.169-.944.266-1.194.073a2.907,2.907,0,0,1-.889-1.191c-.183-.488.047-.9.684-1.226a3.7,3.7,0,0,0,1.409-1.4c.1-.152.207-.309.327-.465A4.761,4.761,0,0,1,20.01,9.233c.071-.027.24-.073.447-.131,1.4-.395,1.741-.527,1.877-.926l.321-.934a6.81,6.81,0,0,1,1.261,2.132,16.386,16.386,0,0,1,1.055,4.808,12.951,12.951,0,0,0,.631,3.587,14.65,14.65,0,0,0,1.9,3.445c3.172,4.477,5.444,8.269,3.492,12.9a.63.63,0,0,0,1.163.484c2.374-5.641-.952-10.336-3.625-14.109a13.457,13.457,0,0,1-1.742-3.151,11.815,11.815,0,0,1-.559-3.254,17.653,17.653,0,0,0-1.14-5.174,6.8,6.8,0,0,0-2.374-3.267.632.632,0,0,0-.95.316l-.549,1.6c-.274.1-.836.263-1.1.338-.286.08-.514.148-.591.181a5.751,5.751,0,0,0-2.469,1.6c-.138.178-.258.357-.375.531a2.534,2.534,0,0,1-.938.977,2.182,2.182,0,0,0-1.288,2.779,4.131,4.131,0,0,0,1.3,1.743,2.27,2.27,0,0,0,2.113.2c.57.543,1.469,1.971.092,4.981-1.247,2.728-.737,5.964-.286,8.82.084.531.166,1.053.235,1.56.3,2.18-.107,3.2-.5,3.665a1.929,1.929,0,0,1-1.466.642h-.648a2.544,2.544,0,0,0-2.573,2.509.628.628,0,0,0,.63.627h5.18a.627.627,0,1,0,0-1.254H14.152a1.325,1.325,0,0,1,1.136-.628h.677a3.181,3.181,0,0,0,2.4-1.093c.807-.963,1.069-2.523.78-4.636-.071-.516-.154-1.046-.239-1.586-.444-2.813-.9-5.721.188-8.106C21.081,17.075,19.041,15.179,18.368,14.7Z" transform="translate(-12.716 -5.537)"/>
        <path id="Path_6" data-name="Path 6" d="M39.9,31.96a.627.627,0,1,0-1.2.365c2.467,8.093,1.5,11.709.257,13.318a3.766,3.766,0,0,1-2.977,1.509H26.414A1.949,1.949,0,0,1,28.252,45.9h3.222a.627.627,0,0,0,0-1.254,3.766,3.766,0,1,1,0-7.529.627.627,0,0,0,0-1.254,5.084,5.084,0,0,0-5.137,5.018,4.956,4.956,0,0,0,1.768,3.779,3.164,3.164,0,0,0-3.056,3.122.627.627,0,0,0,.627.627H35.949c.01,0,.043,0,.1,0a5.046,5.046,0,0,0,3.884-1.97C42.026,43.764,42.016,38.893,39.9,31.96Z" transform="translate(-17.215 -15.232)"/>
        <ellipse id="Ellipse_3" data-name="Ellipse 3" cx="0.644" cy="0.627" rx="0.644" ry="0.627" transform="translate(7.101 4.756)"/>
      </g>
    </g>
  </g>
</svg>
