<svg xmlns="http://www.w3.org/2000/svg" width="26.076" height="25.957" viewBox="0 0 26.076 25.957">
  <g id="noun_Parrot_394593" transform="translate(-68.485 -69.2)">
    <g id="Group_5" data-name="Group 5" transform="translate(68.485 69.2)">
      <path id="Path_15" data-name="Path 15" d="M92.948,78.911c-.09-.2-.167-.375-.229-.514-4-8.53-10-9.2-11.748-9.2-3.552,0-5.2.973-5.6,1.244-8.2,3.114-6.806,11.748-6.792,11.839l.313,1.8.8-1.648a24.6,24.6,0,0,1,2.6-3.684,4.767,4.767,0,0,0,2.586.153,3.166,3.166,0,0,1-.813,2.065c-.1.076-.424.313-1.168.063l-.938-.32.167.98c.021.132.591,3.1,5.346,3.42.417,1.015,1.564,4.213.6,6.256-.056.118-.125.25-.2.4a7.5,7.5,0,0,0-1.036,3.392h1.182a6.359,6.359,0,0,1,.9-2.85c.083-.16.16-.306.222-.438.792-1.689.459-3.879.014-5.471.174.014.355.021.521.021a4.229,4.229,0,0,0,3.385-1.342c1.5-1.752,1.022-4.685.709-5.978a6.5,6.5,0,0,1,3.365.973l1.314.848-.424-1.508c-.076-.271-1.919-6.625-5.784-7.271-1.953-.327-2.649-1.154-2.906-1.7a16.034,16.034,0,0,1,1.627-.083c1.571,0,6.972.612,10.678,8.509.063.139.139.306.222.494.82,1.856,1.585,3.385,2.676,3.385l.014-1.182C94.241,81.525,93.7,80.621,92.948,78.911ZM72.386,77.528l-.417-.209-.3.355c-.063.076-1.1,1.293-2,2.572a9.236,9.236,0,0,1,5.075-8.224c.424.688,1.161,2.461.271,5.61A3.538,3.538,0,0,1,72.386,77.528Zm1.321,4.79a2.055,2.055,0,0,0,1.057-.4,3.974,3.974,0,0,0,1.265-2.683,5.263,5.263,0,0,1,1.349,4.671A4.916,4.916,0,0,1,73.706,82.318Zm8.349-9c2.183.361,3.67,3.316,4.373,5.089a5.7,5.7,0,0,0-3.552-.341l-.591.167.188.584c.334,1.036.938,4.039-.306,5.5-.66.772-1.807,1.057-3.4.862-.118-.32-.215-.563-.285-.716a6.473,6.473,0,0,0-2.287-6.66c.89-3.267.181-5.3-.368-6.27.014-.007.021-.014.035-.014l.167-.09a5.568,5.568,0,0,1,2.12-.786C78.426,71.494,79.3,72.863,82.055,73.322Z" transform="translate(-68.485 -69.2)"/>
      <path id="Path_16" data-name="Path 16" d="M224.373,137.545a1.773,1.773,0,1,0-1.773-1.773A1.776,1.776,0,0,0,224.373,137.545Zm0-2.357a.591.591,0,1,1-.591.591A.59.59,0,0,1,224.373,135.189Z" transform="translate(-211.887 -129.495)"/>
    </g>
  </g>
</svg>
